<svg version="1.1" viewBox="0 0 224 204.055" xmlns="http://www.w3.org/2000/svg">
  <path fill="#91262C" d="M198.867,58.948h-30.566c-0.686,0-1.24-0.557-1.24-1.24v-30.57c0-0.686,0.558-1.24,1.24-1.24h30.566
    c0.688,0,1.24,0.558,1.24,1.24v30.567C200.107,58.392,199.553,58.948,198.867,58.948"/>
  <path fill="#5D725B" d="M89.871,158.321l-6.215,22.424c9.441,1.965,19.189,2.074,28.654,0.266l-7.971-22.688H89.871V158.321z
    M96.25,135.3l-5.17,18.648h11.725L96.25,135.3z M147.166,88.743l-7.594,6.373c-0.486,0.407-1.217,0.346-1.627-0.145l-14.447-17.219
    c-0.408-0.488-0.348-1.216,0.143-1.627l7.596-6.373c0.486-0.408,1.216-0.348,1.627,0.143l14.449,17.22
    C147.719,87.603,147.656,88.332,147.166,88.743 M80.648,119.769l8.48,10.104c0.438,0.523,0.371,1.308-0.154,1.746l-22.109,18.555
    c-0.521,0.439-1.307,0.373-1.748-0.151l-8.479-10.104c-0.441-0.524-0.371-1.309,0.152-1.748l22.11-18.554
    C79.428,119.179,80.207,119.243,80.648,119.769 M150.08,57.945c-14.225-14.228-32.869-21.34-51.518-21.34
    c-18.646,0-37.293,7.112-51.521,21.34c-26.27,26.271-28.225,67.583-5.98,96.166l12.012-10.078c0.525-0.439,1.309-0.371,1.746,0.15
    l5.779,6.887c0.439,0.527,0.373,1.311-0.152,1.748l-11.664,9.787c8.953,8.389,19.496,14.078,30.627,17.104l14.145-51.029
    l-10.994-13.1c-0.439-0.527-0.371-1.311,0.152-1.748l37.562-31.521c0.524-0.438,1.307-0.37,1.746,0.154l11.035,13.146
    c0.438,0.525,0.37,1.311-0.152,1.747L97.82,126.796c0.025,0.035,0.053,0.066,0.074,0.104c0.051,0.086,0.086,0.182,0.125,0.27
    c0.016,0.037,0.039,0.068,0.053,0.107l0.008,0.027c0,0.002,0.002,0.004,0.006,0.008l18.502,52.668
    c12.268-31.21,23.896-9.4,33.498-19.004C178.533,132.526,178.533,86.397,150.08,57.945"/>
</svg>
